<?xml version="1.0" standalone="no"?><!DOCTYPE svg PUBLIC "-//W3C//DTD SVG 1.1//EN" "http://www.w3.org/Graphics/SVG/1.1/DTD/svg11.dtd"><svg t="1639364970687" class="icon" viewBox="0 0 1024 1024" version="1.1" xmlns="http://www.w3.org/2000/svg" p-id="1938" xmlns:xlink="http://www.w3.org/1999/xlink" width="20" height="20"><defs><style type="text/css"></style></defs><path d="M751.2 906.4l-579.2-0.8c-28.8 0-52.8-23.2-52.8-52.8V168.8c0-28.8 23.2-52.8 52.8-52.8h225.6v245.6l63.2-60.8 65.6 60.8V116.8h224c28.8 0 52.8 23.2 52.8 52.8v184c0 14.4 12 26.4 26.4 26.4s26.4-12 26.4-26.4v-184C856 111.2 808.8 64 750.4 64H172c-58.4 0.8-104.8 48-104.8 105.6v684.8c0 58.4 47.2 105.6 105.6 105.6H752c14.4 0 26.4-12 26.4-26.4-0.8-15.2-12.8-27.2-27.2-27.2z" p-id="1939" fill="#2685ff"></path><path d="M514.4 485.6c0-14.4-12-26.4-26.4-26.4H224.8c-14.4 0-26.4 12-26.4 26.4s12 26.4 26.4 26.4H488c15.2-0.8 26.4-12 26.4-26.4z m-289.6 184c-14.4 0-26.4 12-26.4 26.4s12 26.4 26.4 26.4h158.4c14.4 0 26.4-12 26.4-26.4s-12-26.4-26.4-26.4H224.8z m512.8-100.8c-45.6-1.6-84 34.4-85.6 80.8-1.6 45.6 34.4 84.8 80.8 85.6h2.4c45.6 0 83.2-36.8 83.2-82.4 0-45.6-36-82.4-80.8-84z m0 122.4c-21.6 0-39.2-17.6-39.2-39.2s17.6-39.2 39.2-39.2 39.2 17.6 39.2 39.2-17.6 39.2-39.2 39.2z" p-id="1940" fill="#2685ff"></path><path d="M955.2 608.8c-1.6-7.2-4-13.6-8.8-19.2-4.8-5.6-12-8.8-19.2-8.8-24.8 0-44.8-20.8-45.6-45.6 0.8-6.4 1.6-12 4-17.6 6.4-15.2 1.6-32.8-11.2-42.4l-52.8-30.4c-4.8-1.6-9.6-2.4-14.4-2.4-10.4 0-20 4-26.4 11.2-9.6 10.4-22.4 18.4-36 20.8-14.4-3.2-27.2-10.4-36.8-21.6-10.4-10.4-26.4-13.6-40.8-8l-56 30.4c-13.6 9.6-18.4 27.2-11.2 42.4 2.4 5.6 4 11.2 4 17.6 0 24.8-20.8 44.8-45.6 45.6-7.2 0-13.6 3.2-18.4 8.8-4.8 5.6-8 12-8.8 19.2-2.4 14.4-4 28.8-4.8 43.2 0.8 14.4 2.4 28.8 4.8 43.2 1.6 7.2 4 13.6 8.8 19.2 4.8 5.6 11.2 8 18.4 8.8 24.8 0 44.8 20.8 45.6 45.6-0.8 6.4-1.6 12-4 17.6-6.4 15.2-1.6 32.8 11.2 42.4l52.8 29.6c14.4 5.6 30.4 2.4 40.8-8.8 9.6-11.2 23.2-19.2 37.6-22.4 14.4 3.2 28 11.2 37.6 22.4 10.4 11.2 26.4 14.4 40.8 8.8l50.4-29.6c13.6-9.6 18.4-27.2 11.2-42.4-2.4-5.6-4-11.2-4-17.6 0-24.8 20-45.6 45.6-45.6 7.2 0 14.4-3.2 19.2-8.8 4.8-5.6 8-12 8.8-19.2 2.4-14.4 4-28.8 4.8-43.2 0.8-14.4 0-28.8-1.6-43.2z m-41.6 71.2c-44 6.4-77.6 44-77.6 88.8 0 8.8 1.6 17.6 4.8 26.4l-37.6 20.8c-4.8-4.8-10.4-8.8-16-12.8-15.2-12-33.6-19.2-52.8-19.2-18.4 0.8-35.2 7.2-49.6 19.2-5.6 4-10.4 8.8-15.2 12.8l-36-20c14.4-47.2-11.2-97.6-58.4-112-4.8-1.6-9.6-2.4-13.6-3.2-0.8-8.8-0.8-18.4 0-27.2-0.8-8.8-0.8-18.4 0-27.2 48.8-5.6 83.2-49.6 77.6-98.4-0.8-5.6-1.6-10.4-3.2-15.2l39.2-20.8c4.8 4.8 10.4 8.8 16 12.8 14.4 11.2 31.2 17.6 48.8 18.4 17.6-0.8 34.4-7.2 48.8-17.6 5.6-4 10.4-8 15.2-12.8l36.8 20.8a76.8 76.8 0 0 0-4.8 26.4c0 44.8 32.8 82.4 77.6 88.8 0.8 8.8 0.8 18.4 0 27.2v24z" p-id="1941" fill="#2685ff"></path></svg>