<?xml version="1.0" standalone="no"?><!DOCTYPE svg PUBLIC "-//W3C//DTD SVG 1.1//EN" "http://www.w3.org/Graphics/SVG/1.1/DTD/svg11.dtd"><svg t="1639365005637" class="icon" viewBox="0 0 1024 1024" version="1.1" xmlns="http://www.w3.org/2000/svg" p-id="2128" xmlns:xlink="http://www.w3.org/1999/xlink" width="20" height="20"><defs><style type="text/css"></style></defs><path d="M512 0.064C229.184 0.064 0 229.248 0 512s229.184 511.936 512 511.936S1024 794.752 1024 512 794.816 0.064 512 0.064zM512 957.44c-246.016 0-445.44-199.424-445.44-445.44S265.984 66.56 512 66.56 957.44 265.984 957.44 512 758.016 957.44 512 957.44z" p-id="2129" fill="#2685ff"></path><path d="M781.12 567.296C784.768 549.376 786.688 530.88 786.688 512c0-151.488-123.264-274.688-274.688-274.688S237.312 360.512 237.312 512c0 2.496 0.704 4.928 0.768 7.36-30.144 22.976-49.92 58.944-49.92 99.776 0 69.504 56.32 125.824 125.824 125.824 14.72 0 28.544-3.008 41.6-7.616C400.064 768.256 453.824 786.688 512 786.688c76.224 0 145.216-31.296 195.008-81.536 16 21.696 40.448 36.672 69.44 36.672 48.448 0 87.744-39.296 87.744-87.744C864.192 607.296 827.264 569.856 781.12 567.296zM512 718.72c-35.2 0-67.968-9.664-96.96-25.28 15.36-20.8 24.768-46.4 24.768-74.24 0-69.504-56.32-125.824-125.824-125.824-2.304 0-4.48 0.576-6.784 0.704C316.416 388.544 404.224 305.28 512 305.28c113.984 0 206.72 92.672 206.72 206.72S625.984 718.72 512 718.72z" p-id="2130" fill="#2685ff"></path></svg>